<svg id="e3cl08nkg1t1" xmlns="http://www.w3.org/2000/svg" xmlns:xlink="http://www.w3.org/1999/xlink" viewBox="0 0 640 640" shape-rendering="geometricPrecision" text-rendering="geometricPrecision" style="background-color:#fff"><defs><linearGradient id="e3cl08nkg1t3-fill" x1="0.489361" y1="-0.00383" x2="0.49637" y2="0.706156" spreadMethod="pad" gradientUnits="objectBoundingBox" gradientTransform="translate(0 0)"><stop id="e3cl08nkg1t3-fill-0" offset="0%" stop-color="#152055"/><stop id="e3cl08nkg1t3-fill-1" offset="100%" stop-color="#0c0b33"/></linearGradient><linearGradient id="e3cl08nkg1t6-fill" x1="1.636801" y1="-0.552278" x2="0.401187" y2="0.886182" spreadMethod="pad" gradientUnits="objectBoundingBox" gradientTransform="translate(0 0)"><stop id="e3cl08nkg1t6-fill-0" offset="0%" stop-color="#7e93ff"/><stop id="e3cl08nkg1t6-fill-1" offset="100%" stop-color="#2d3a79"/></linearGradient><linearGradient id="e3cl08nkg1t7-stroke" x1="0" y1="0.5" x2="1" y2="0.5" spreadMethod="pad" gradientUnits="objectBoundingBox" gradientTransform="translate(0 0)"><stop id="e3cl08nkg1t7-stroke-0" offset="0%" stop-color="#8fc2ff"/><stop id="e3cl08nkg1t7-stroke-1" offset="100%" stop-color="#fff"/></linearGradient></defs><g transform="matrix(1.028315 0 0 1-51.794283 88.623402)"><ellipse rx="236.187196" ry="236.187196" transform="matrix(1.041057 0 0 1.041057 365.09482 214.948172)" fill="url(#e3cl08nkg1t3-fill)" stroke-width="0"/><path style="isolation:isolate" d="M-172.029167,7.978511c13.642528-44.813079-18.901988-63.643736-6.726297-63.643736s36.109476,29.615062,39.836507,61.535164-.134792,50.165687-14.432377,47.737022-33.14949,4.651894-18.677833-45.62845Z" transform="matrix(.558809-.261874 0.228635 0.487882 551.934789 34.702925)" fill="#0a031b" stroke-width="0"/><path d="M407.475179,108.437143c-4.300322-7.112425-8.576655-18.785549-6.104093-25.026782s14.499741-14.319815,24.221405,9.236525s14.582496,24.491114,14.395541,31.595407-13.590165,11.05286-32.512853-15.80515Z" transform="translate(63.101045 16.934322)" fill="#ff518c" stroke-width="1.28"/><path d="M354.767411,287.339369c18.520077,13.644275,64.300979,44.149314,49.978488,75.523048s-62.603644,47.154916-144.984484,16.556318-152.665178-112.626078-168.769357-137.615322c139.939766,2.221266,185.564581,2.410323,263.775353,45.535956Z" transform="translate(54.090416 14.11876)" fill="url(#e3cl08nkg1t6-fill)" stroke-width="1.28"/></g><path d="M220.914252,431.101285c90.2536,15.239556,161.417616,9.003373,184.99156-36.905159s-10.50092-83.273885-59.159254-128.330123-105.616875-169.530414-73.34309-182.137362s45.67567,47.772194,65.624815,61.451608c7.875866,6.042797,15.085439,2.615719,16.734674.966484s-.973821-5.494419-6.966995-14.832957-11.197352-25.187854-13.035023-33.261784-8.540189-19.327793-11.23709-14.383474s4.944319,22.474177,13.709249,20.676243s18.611023-7.022038,5.327031-33.179158-66.278046-52.2844-102.764437-16.49967-15.43655,120.685754,14.734889,178.221986s70.61553,102.487246,83.570615,102.868279-31.730804-71.339778-111.978432-83.640509-204.158148-4.205912-221.923411-24.12454s89.277642-11.045052,130.831092,42.969035s58.048709,105.188894,134.489288,116.390579s50.053405-53.601311-7.7429-85.126568-253.846327-37.402494-253.846327-37.402494s77.082461,142.497371,211.983746,166.279584Z" transform="translate(92.589193 80.626306)" fill="none" stroke="url(#e3cl08nkg1t7-stroke)" stroke-width="5" stroke-miterlimit="36" stroke-dashoffset="2659.74" stroke-dasharray="2659.74"/><text dx="0" dy="0" font-family="&quot;e3cl08nkg1t1:::Roboto&quot;" font-size="32" font-weight="400" transform="matrix(1.892489 0 0 2.459741 156.630359 314.760221)" fill="#d0c5c5" stroke-width="0"><tspan y="0" font-weight="400" stroke-width="0"><![CDATA[CLICK HERE ]]></tspan></text><text dx="0" dy="0" font-family="&quot;e3cl08nkg1t1:::Roboto&quot;" font-size="32" font-weight="400" transform="translate(768.574446 359.873285)" stroke-width="0"><tspan y="0" font-weight="400" stroke-width="0"><![CDATA[ ]]></tspan></text><style><![CDATA[@font-face {font-family: 'e3cl08nkg1t1:::Roboto';font-style: normal;font-weight: 400;src: url(https://fonts.gstatic.com/l/font?kit=KFOmCnqEu92Fr1Me5X5HI3R4Yoi52do&skey=a0a0114a1dcab3ac&v=v30) format('truetype');}]]></style></svg>